HIERARCHY
ROOT ui
{
	 OFFSET 0 0 0
	 CHANNELS 3 XPosition YPosition Z Position
	 EndSite
	 {
	 OFFSET 0 -1 0
	 }
}
ROOT li
{
	 OFFSET 0 0 0
	 CHANNELS 3 XPosition YPosition Z Position
	 EndSite
	 {
	 OFFSET 0 -1 0
	 }
}
ROOT ul
{
	 OFFSET 0 0 0
	 CHANNELS 3 XPosition YPosition Z Position
	 EndSite
	 {
	 OFFSET 0 -1 0
	 }
}
ROOT ll
{
	 OFFSET 0 0 0
	 CHANNELS 3 XPosition YPosition Z Position
	 EndSite
	 {
	 OFFSET 0 -1 0
	 }
}
ROOT tt
{
	 OFFSET 0 0 0
	 CHANNELS 3 XPosition YPosition Z Position
	 EndSite
	 {
	 OFFSET 0 -1 0
	 }
}
ROOT tb
{
	 OFFSET 0 0 0
	 CHANNELS 3 XPosition YPosition Z Position
	 EndSite
	 {
	 OFFSET 0 -1 0
	 }
}
ROOT td
{
	 OFFSET 0 0 0
	 CHANNELS 3 XPosition YPosition Z Position
	 EndSite
	 {
	 OFFSET 0 -1 0
	 }
}
ROOT v
{
	 OFFSET 0 0 0
	 CHANNELS 3 XPosition YPosition Z Position
	 EndSite
	 {
	 OFFSET 0 -1 0
	 }
}
ROOT bn
{
	 OFFSET 0 0 0
	 CHANNELS 3 XPosition YPosition Z Position
	 EndSite
	 {
	 OFFSET 0 -1 0
	 }
}
MOTION
Frames: 27
Frame Time: 0.002
7.794219851493836E-4	0.001043092966079712	0		0.529746337890625	-2.4890771484375	0		-1.062439697265625	0.16503727722167968	0		-0.680634033203125	-2.69344775390625	0		1.4151455078125	-0.7729476928710938	0		3.03471875	-0.11016012573242187	0		4.5860888671875	0.0913668670654297	0		5.60839892578125	0.16877410888671876	0		-0.36263677978515624	5.9105146484375	0		
0.004200595855712891	0.004345141887664795	0		0.5575458374023438	-2.487192138671875	0		-1.0630126953125	0.16564540100097655	0		-0.7148458251953125	-2.68755322265625	0		1.423457763671875	-0.76304931640625	0		3.034078369140625	-0.11055324554443359	0		4.58549755859375	0.09059461975097656	0		5.60153662109375	0.1724088134765625	0		-0.36180572509765624	5.91095166015625	0		
0.008551998138427734	6.439610123634338E-4	0		0.5553363647460937	-2.4899501953125	0		-1.0695177001953124	0.17131822204589844	0		-0.681103759765625	-2.69044140625	0		1.41659814453125	-0.7699474487304687	0		3.036509033203125	-0.1059283218383789	0		4.581845703125	0.08393399047851563	0		5.6010791015625	0.1708330535888672	0		-0.3620251159667969	5.913404296875	0		
-0.004057444095611572	-8.510140180587769E-4	0		0.54230029296875	-2.48256298828125	0		-1.06817529296875	0.16288755798339843	0		-0.7410479125976562	-2.6712275390625	0		1.412810791015625	-0.7728519897460937	0		3.02978076171875	-0.1161440200805664	0		4.58127734375	0.08331432342529296	0		5.60411474609375	0.15201145935058594	0		-0.3754736938476563	5.90301318359375	0		
-0.0027219150066375734	-0.008510724067687988	0		0.5491072387695313	-2.493403564453125	0		-1.0746485595703126	0.16853497314453125	0		-0.68741552734375	-2.693384521484375	0		1.4120906982421875	-0.7727686767578125	0		3.029190673828125	-0.11638104248046875	0		4.5807265625	0.08276992034912109	0		5.6036845703125	0.1507471923828125	0		-0.3938210754394531	5.907681640625	0		
0.007756824016571045	-0.006287228107452392	0		0.5262010498046875	-2.485873046875	0		-1.1411566162109374	0.16990245056152345	0		-0.719357177734375	-2.68551953125	0		1.411407470703125	-0.7726649780273438	0		3.048636962890625	-0.11581651306152344	0		4.5812470703125	0.08628823089599609	0		5.6061865234375	0.16166526794433594	0		-0.3431279296875	5.92149365234375	0		
0.0063391470909118655	0.0020748090744018553	0		0.5543032836914062	-2.4839697265625	0		-1.0546776123046875	0.16735176086425782	0		-0.6813006591796875	-2.684538818359375	0		1.4198895263671876	-0.7626561279296875	0		3.031152587890625	-0.111748046875	0		4.58969384765625	0.08178335571289062	0		5.6028818359375	0.14869818115234376	0		-0.22551699829101562	5.93443701171875	0		
0.005852021217346191	0.002415684938430786	0		0.55143408203125	-2.48568212890625	0		-1.072063720703125	0.17405946350097656	0		-0.7211829833984374	-2.68460595703125	0		1.41320458984375	-0.7694417724609375	0		3.027586181640625	-0.11680313110351563	0		4.57921875	0.08159261322021484	0		5.5990400390625	0.1653262481689453	0		-0.23929034423828124	5.92398876953125	0		
0.0032421929836273194	-0.00922821617126465	0		0.5735620727539062	-2.493713623046875	0		-1.0824854736328124	0.1756514892578125	0		-0.6890424194335938	-2.6896064453125	0		1.4036903076171876	-0.7661735229492187	0		3.032024658203125	-0.1239148178100586	0		4.58877099609375	0.081222412109375	0		5.5999697265625	0.13525242614746094	0		-0.35814990234375	5.91386962890625	0		
-0.0021208748817443846	-0.0038472139835357667	0		0.5209480590820312	-2.4867890625	0		-1.071023193359375	0.16593180847167968	0		-0.7026679077148438	-2.6820478515625	0		1.40910302734375	-0.7720841674804687	0		3.026675048828125	-0.1168603515625	0		4.5814306640625	0.08713497161865234	0		5.5983525390625	0.15903570556640625	0		-0.3920010986328125	5.9096640625	0		
-0.005557324886322022	-0.006503847122192383	0		0.5483069458007812	-2.487895751953125	0		-1.067353759765625	0.1702819366455078	0		-0.7253616333007813	-2.685393798828125	0		1.41167333984375	-0.7689486694335937	0		3.040265625	-0.11701580810546874	0		4.58104150390625	0.08701833343505859	0		5.6044755859375	0.15848385620117186	0		-0.3577939453125	5.9145625	0		
0.004203229904174805	0.003656735897064209	0		0.522813720703125	-2.482321044921875	0		-1.067709228515625	0.1706558074951172	0		-0.7218856201171875	-2.6810986328125	0		1.4173363037109374	-0.7618450317382812	0		3.03792724609375	-0.11393317413330079	0		4.5806796875	0.08695619201660157	0		5.604203125	0.1582506103515625	0		-0.2244172058105469	5.93614453125	0		
0.0038635170459747313	0.003936928033828735	0		0.5732186889648437	-2.489741943359375	0		-1.0680382080078126	0.17100460815429688	0		-0.7353042602539063	-2.673602294921875	0		1.4108563232421876	-0.7685760498046875	0		3.05759130859375	-0.11310948181152344	0		4.5772666015625	0.0809832763671875	0		5.6010341796875	0.1461060333251953	0		-0.3576672668457031	5.91518505859375	0		
-5.004349946975709E-4	2.605839967727661E-4	0		0.5188199462890625	-2.485790771484375	0		-1.0783270263671876	0.17246324157714843	0		-0.7028255615234374	-2.6787265625	0		1.395636962890625	-0.758182861328125	0		3.0252236328125	-0.11657801055908203	0		4.576958984375	0.08101316833496094	0		5.5973330078125	0.16348446655273438	0		-0.3727848815917969	5.9066728515625	0		
-0.006863818168640136	-0.005397396087646484	0		0.5683178100585937	-2.494210693359375	0		-1.0726708984375	0.1676932830810547	0		-0.7402095947265624	-2.676945556640625	0		1.407146728515625	-0.7711383056640625	0		3.02493408203125	-0.11644651794433594	0		4.576677734375	0.08107760620117188	0		5.59417724609375	0.14631887817382813	0		-0.39077313232421873	5.9101884765625	0		
-0.004082733154296875	-0.0021825029850006104	0		0.5201077880859375	-2.48334130859375	0		-1.1448505859375	0.17393896484375	0		-0.7256302490234375	-2.68186279296875	0		1.409900634765625	-0.7679735717773437	0		3.04468310546875	-0.11556415557861328	0		4.5774755859375	0.08515623474121094	0		5.603326171875	0.1582323455810547	0		-0.35478500366210936	5.91297998046875	0		
0.010750563621520996	0.0028666980266571045	0		0.5488278198242188	-2.481492919921875	0		-1.135985107421875	0.18110081481933593	0		-0.7218872680664062	-2.677646484375	0		1.415739013671875	-0.7608462524414062	0		3.027502685546875	-0.11117890167236329	0		4.5861923828125	0.0811525421142578	0		5.60315673828125	0.15838447570800782	0		-0.3578045349121094	5.91627880859375	0		
0.0025728950500488283	0.005216986179351807	0		0.5205662841796875	-2.480889404296875	0		-1.069298095703125	0.17248211669921876	0		-0.702131103515625	-2.675651123046875	0		1.40942333984375	-0.76755517578125	0		3.027295166015625	-0.11100645446777344	0		4.575990234375	0.08142091369628907	0		5.6000888671875	0.14656343078613282	0		-0.35786904907226563	5.91653125	0		
0.002393886089324951	0.005458439826965332	0		0.5692020263671875	-2.491309326171875	0		-1.069473876953125	0.17274417114257812	0		-0.750237548828125	-2.6657578125	0		1.4061898193359375	-0.770300537109375	0		3.028953857421875	-0.12284870147705078	0		4.5758125	0.08157445526123047	0		5.59995849609375	0.14679779052734376	0		-0.37206631469726564	5.90696728515625	0		
7.92900025844574E-5	-0.00627474308013916	0		0.543051513671875	-2.487732666015625	0		-1.0736790771484375	0.16905325317382813	0		-0.6957311401367188	-2.68823828125	0		1.406023193359375	-0.7700828247070313	0		3.023890869140625	-0.11558966064453124	0		4.57955224609375	0.07369132232666016	0		5.599845703125	0.1470661926269531	0		-0.3910762939453125	5.91146484375	0		
-0.008026243209838867	-0.003931382894515991	0		0.5449165649414063	-2.48552880859375	0		-1.1457369384765625	0.17526248168945313	0		-0.7288252563476563	-2.6825537109375	0		1.411974365234375	-0.7629428100585938	0		3.026822998046875	-0.11042805480957031	0		4.57860693359375	0.08788761901855469	0		5.6026689453125	0.1593828582763672	0		-0.2237958984375	5.9364755859375	0		
0.0019936389923095703	0.006169171810150147	0		0.5478505249023438	-2.4803388671875	0		-1.0698682861328126	0.1734920959472656	0		-0.689949462890625	-2.681833740234375	0		1.4148953857421875	-0.759759521484375	0		3.03161572265625	-0.11728347015380859	0		4.5754150390625	0.0821265106201172	0		5.59966845703125	0.14769638061523438	0		-0.3571430053710937	5.91648974609375	0		
0.002792902946472168	-0.0016098639965057373	0		0.544677734375	-2.485067626953125	0		-1.0699613037109375	0.1737310791015625	0		-0.7270401611328124	-2.680102783203125	0		1.4087047119140625	-0.7664522705078125	0		3.035587646484375	-0.11211894989013672	0		4.57532177734375	0.08233713531494141	0		5.59612890625	0.165466552734375	0		-0.2380574951171875	5.92713525390625	0		
-0.0022294020652771	0.0026894280910491944	0		0.5425674438476562	-2.486809326171875	0		-1.0740899658203125	0.17002098083496095	0		-0.705072998046875	-2.676161865234375	0		1.40558642578125	-0.769183349609375	0		3.02347216796875	-0.11473473358154297	0		4.57524560546875	0.08255614471435548	0		5.5995458984375	0.1484265441894531	0		-0.40646136474609373	5.90261474609375	0		
-0.008368666648864747	-0.0029975290298461916	0		0.5145181274414062	-2.485204345703125	0		-1.150129150390625	0.17227090454101562	0		-0.7312431030273437	-2.683579833984375	0		1.4055250244140625	-0.7689541015625	0		3.026478759765625	-0.10954961395263672	0		4.5790791015625	0.07472561645507812	0		5.58596142578125	0.1509762725830078	0		-0.39038909912109376	5.9116337890625	0		
0.0026132729053497316	-9.126669764518738E-4	0		0.5164949951171875	-2.48300048828125	0		-1.140186767578125	0.17137211608886718	0		-0.7292667846679688	-2.681373046875	0		1.408519287109375	-0.7657658081054688	0		3.05837841796875	-0.11375204467773438	0		4.583115234375	0.08089270782470703	0		5.60239013671875	0.16120237731933593	0		-0.38944561767578123	5.909853515625	0		
0.006625019073486328	0.002265573978424072	0		0.5215525512695313	-2.47583740234375	0		-1.1311214599609376	0.17848666381835937	0		-0.7232232666015626	-2.675219482421875	0		1.4145819091796874	-0.7586189575195312	0		3.029472900390625	-0.1041426010131836	0		4.57330224609375	0.09724296569824219	0		5.5930322265625	0.1497663116455078	0		-0.35636502075195314	5.91664501953125	0		
